G04 EAGLE Gerber RS-274X export*
G75*
%MOMM*%
%FSLAX34Y34*%
%LPD*%
%INBottom Copper*%
%IPPOS*%
%AMOC8*
5,1,8,0,0,1.08239X$1,22.5*%
G01*
G04 Define Apertures*
%ADD10C,0.502400*%
%ADD11C,0.127000*%
%ADD12C,0.452400*%
G36*
X845807Y1646D02*
X845658Y1616D01*
X64230Y1616D01*
X64092Y1641D01*
X63965Y1723D01*
X63879Y1848D01*
X63849Y1997D01*
X63849Y548037D01*
X63874Y548174D01*
X63956Y548302D01*
X64081Y548388D01*
X64230Y548418D01*
X124346Y548418D01*
X125964Y550036D01*
X125964Y732752D01*
X125988Y732883D01*
X126067Y733013D01*
X126191Y733100D01*
X126339Y733133D01*
X126488Y733105D01*
X126615Y733021D01*
X131333Y728303D01*
X131415Y728182D01*
X131445Y728033D01*
X131445Y584908D01*
X131417Y584765D01*
X131333Y584638D01*
X129818Y583123D01*
X129818Y580197D01*
X131887Y578128D01*
X134813Y578128D01*
X136882Y580197D01*
X136882Y583123D01*
X135367Y584638D01*
X135285Y584759D01*
X135255Y584908D01*
X135255Y727271D01*
X135278Y727403D01*
X135358Y727532D01*
X135482Y727620D01*
X135630Y727652D01*
X135779Y727624D01*
X135905Y727541D01*
X150383Y713063D01*
X150465Y712942D01*
X150495Y712793D01*
X150495Y618971D01*
X155421Y614045D01*
X165889Y614045D01*
X169588Y617743D01*
X169708Y617825D01*
X169857Y617855D01*
X296233Y617855D01*
X296376Y617827D01*
X296503Y617743D01*
X298973Y615273D01*
X299055Y615152D01*
X299085Y615003D01*
X299085Y545846D01*
X299059Y545709D01*
X298978Y545581D01*
X298853Y545495D01*
X298704Y545465D01*
X212798Y545465D01*
X212655Y545493D01*
X212528Y545577D01*
X211013Y547092D01*
X208087Y547092D01*
X207025Y546030D01*
X206916Y545954D01*
X206768Y545919D01*
X206619Y545944D01*
X206491Y546026D01*
X206405Y546151D01*
X206375Y546300D01*
X206375Y547693D01*
X206403Y547836D01*
X206487Y547963D01*
X221301Y562776D01*
X221421Y562858D01*
X221570Y562888D01*
X223713Y562888D01*
X225228Y564403D01*
X225349Y564485D01*
X225498Y564515D01*
X244629Y564515D01*
X286071Y605956D01*
X286191Y606038D01*
X286340Y606068D01*
X288483Y606068D01*
X290552Y608137D01*
X290552Y611063D01*
X288483Y613132D01*
X285557Y613132D01*
X283488Y611063D01*
X283488Y608920D01*
X283460Y608777D01*
X283376Y608651D01*
X243163Y568437D01*
X243042Y568355D01*
X242893Y568325D01*
X225498Y568325D01*
X225355Y568353D01*
X225228Y568437D01*
X223713Y569952D01*
X221570Y569952D01*
X221427Y569980D01*
X221301Y570064D01*
X191289Y600075D01*
X163268Y600075D01*
X163125Y600103D01*
X162998Y600187D01*
X161483Y601702D01*
X158557Y601702D01*
X156488Y599633D01*
X156488Y596707D01*
X158557Y594638D01*
X161483Y594638D01*
X162998Y596153D01*
X163119Y596235D01*
X163268Y596265D01*
X189553Y596265D01*
X189696Y596237D01*
X189823Y596153D01*
X215374Y570602D01*
X215450Y570493D01*
X215485Y570345D01*
X215459Y570196D01*
X215378Y570068D01*
X215253Y569982D01*
X215104Y569952D01*
X214437Y569952D01*
X212368Y567883D01*
X212368Y564957D01*
X213056Y564269D01*
X213135Y564154D01*
X213168Y564006D01*
X213140Y563857D01*
X213056Y563730D01*
X200025Y550699D01*
X200025Y527531D01*
X598651Y128905D01*
X986309Y128905D01*
X991235Y133831D01*
X991235Y138684D01*
X991261Y138821D01*
X991342Y138949D01*
X991467Y139035D01*
X991616Y139065D01*
X1035612Y139065D01*
X1035755Y139037D01*
X1035882Y138953D01*
X1037397Y137438D01*
X1040323Y137438D01*
X1042392Y139507D01*
X1042392Y142433D01*
X1040323Y144502D01*
X1037397Y144502D01*
X1035882Y142987D01*
X1035761Y142905D01*
X1035612Y142875D01*
X960828Y142875D01*
X960685Y142903D01*
X960558Y142987D01*
X959043Y144502D01*
X956117Y144502D01*
X954048Y142433D01*
X954048Y139507D01*
X955110Y138445D01*
X955186Y138336D01*
X955221Y138188D01*
X955196Y138039D01*
X955114Y137911D01*
X954989Y137825D01*
X954840Y137795D01*
X933127Y137795D01*
X932984Y137823D01*
X932858Y137907D01*
X865974Y204791D01*
X865892Y204911D01*
X865862Y205060D01*
X865862Y207203D01*
X864800Y208265D01*
X864724Y208374D01*
X864689Y208522D01*
X864714Y208671D01*
X864796Y208799D01*
X864921Y208885D01*
X865070Y208915D01*
X869003Y208915D01*
X869146Y208887D01*
X869273Y208803D01*
X927581Y150495D01*
X944399Y150495D01*
X947741Y153836D01*
X947861Y153918D01*
X948010Y153948D01*
X950153Y153948D01*
X951668Y155463D01*
X951789Y155545D01*
X951938Y155575D01*
X1033072Y155575D01*
X1033215Y155547D01*
X1033342Y155463D01*
X1034857Y153948D01*
X1037783Y153948D01*
X1039852Y156017D01*
X1039852Y158943D01*
X1037783Y161012D01*
X1034857Y161012D01*
X1033342Y159497D01*
X1033221Y159415D01*
X1033072Y159385D01*
X956510Y159385D01*
X956378Y159408D01*
X956249Y159488D01*
X956161Y159612D01*
X956129Y159760D01*
X956157Y159909D01*
X956240Y160035D01*
X957302Y161097D01*
X957302Y164023D01*
X955233Y166092D01*
X952307Y166092D01*
X950792Y164577D01*
X950671Y164495D01*
X950522Y164465D01*
X936190Y164465D01*
X936058Y164488D01*
X935929Y164568D01*
X935841Y164692D01*
X935809Y164840D01*
X935837Y164989D01*
X935920Y165115D01*
X936982Y166177D01*
X936982Y168320D01*
X937010Y168463D01*
X937094Y168590D01*
X1005205Y236701D01*
X1005205Y438712D01*
X1005233Y438855D01*
X1005317Y438982D01*
X1006832Y440497D01*
X1006832Y441164D01*
X1006855Y441296D01*
X1006935Y441425D01*
X1007059Y441513D01*
X1007207Y441545D01*
X1007356Y441517D01*
X1007482Y441434D01*
X1043151Y405765D01*
X1566164Y405765D01*
X1566301Y405739D01*
X1566429Y405658D01*
X1566515Y405533D01*
X1566545Y405384D01*
X1566545Y234161D01*
X1620686Y180020D01*
X1620768Y179899D01*
X1620798Y179750D01*
X1620798Y177607D01*
X1622313Y176092D01*
X1622395Y175971D01*
X1622425Y175822D01*
X1622425Y117548D01*
X1622397Y117405D01*
X1622313Y117278D01*
X1620798Y115763D01*
X1620798Y112837D01*
X1622867Y110768D01*
X1625793Y110768D01*
X1627862Y112837D01*
X1627862Y115763D01*
X1626347Y117278D01*
X1626265Y117399D01*
X1626235Y117548D01*
X1626235Y175822D01*
X1626263Y175965D01*
X1626347Y176092D01*
X1627862Y177607D01*
X1627862Y180533D01*
X1625793Y182602D01*
X1623650Y182602D01*
X1623507Y182630D01*
X1623381Y182714D01*
X1570467Y235628D01*
X1570385Y235748D01*
X1570355Y235897D01*
X1570355Y492560D01*
X1570378Y492692D01*
X1570458Y492821D01*
X1570582Y492909D01*
X1570730Y492941D01*
X1570879Y492913D01*
X1571005Y492830D01*
X1571513Y492322D01*
X1571595Y492201D01*
X1571625Y492052D01*
X1571625Y251941D01*
X1639736Y183830D01*
X1639818Y183709D01*
X1639848Y183560D01*
X1639848Y181417D01*
X1641917Y179348D01*
X1644843Y179348D01*
X1646912Y181417D01*
X1646912Y184343D01*
X1644843Y186412D01*
X1642700Y186412D01*
X1642557Y186440D01*
X1642431Y186524D01*
X1575547Y253408D01*
X1575465Y253528D01*
X1575435Y253677D01*
X1575435Y492052D01*
X1575463Y492195D01*
X1575547Y492322D01*
X1577062Y493837D01*
X1577062Y496763D01*
X1575547Y498278D01*
X1575465Y498399D01*
X1575435Y498548D01*
X1575435Y586259D01*
X1536534Y625161D01*
X1536452Y625281D01*
X1536422Y625430D01*
X1536422Y627573D01*
X1534353Y629642D01*
X1533686Y629642D01*
X1533554Y629665D01*
X1533425Y629745D01*
X1533338Y629869D01*
X1533305Y630017D01*
X1533333Y630166D01*
X1533417Y630292D01*
X1552261Y649136D01*
X1552381Y649218D01*
X1552530Y649248D01*
X1554673Y649248D01*
X1556742Y651317D01*
X1556742Y654243D01*
X1554673Y656312D01*
X1551747Y656312D01*
X1549678Y654243D01*
X1549678Y652100D01*
X1549650Y651957D01*
X1549566Y651831D01*
X1411239Y513504D01*
X1411124Y513425D01*
X1410976Y513392D01*
X1410827Y513420D01*
X1410701Y513504D01*
X1376199Y548005D01*
X1374848Y548005D01*
X1374705Y548033D01*
X1374578Y548117D01*
X1373063Y549632D01*
X1370137Y549632D01*
X1368622Y548117D01*
X1368501Y548035D01*
X1368352Y548005D01*
X1328901Y548005D01*
X1216340Y435444D01*
X1216219Y435362D01*
X1216070Y435332D01*
X1213927Y435332D01*
X1211858Y433263D01*
X1211858Y432596D01*
X1211835Y432464D01*
X1211755Y432335D01*
X1211631Y432248D01*
X1211483Y432215D01*
X1211334Y432243D01*
X1211208Y432327D01*
X935509Y708025D01*
X301698Y708025D01*
X301555Y708053D01*
X301428Y708137D01*
X299913Y709652D01*
X296987Y709652D01*
X295925Y708590D01*
X295816Y708514D01*
X295668Y708479D01*
X295519Y708504D01*
X295391Y708586D01*
X295305Y708711D01*
X295275Y708860D01*
X295275Y759783D01*
X295303Y759926D01*
X295387Y760053D01*
X297501Y762166D01*
X297621Y762248D01*
X297770Y762278D01*
X299913Y762278D01*
X301428Y763793D01*
X301549Y763875D01*
X301698Y763905D01*
X645949Y763905D01*
X914721Y1032676D01*
X914841Y1032758D01*
X914990Y1032788D01*
X917133Y1032788D01*
X919202Y1034857D01*
X919202Y1037783D01*
X917133Y1039852D01*
X914207Y1039852D01*
X912138Y1037783D01*
X912138Y1035640D01*
X912110Y1035497D01*
X912026Y1035371D01*
X644483Y767827D01*
X644362Y767745D01*
X644213Y767715D01*
X301698Y767715D01*
X301555Y767743D01*
X301428Y767827D01*
X299913Y769342D01*
X299246Y769342D01*
X299114Y769365D01*
X298985Y769445D01*
X298898Y769569D01*
X298865Y769717D01*
X298893Y769866D01*
X298977Y769992D01*
X444821Y915836D01*
X444941Y915918D01*
X445090Y915948D01*
X447233Y915948D01*
X448748Y917463D01*
X448869Y917545D01*
X449018Y917575D01*
X480849Y917575D01*
X658181Y1094906D01*
X658301Y1094988D01*
X658450Y1095018D01*
X660593Y1095018D01*
X662662Y1097087D01*
X662662Y1100013D01*
X660593Y1102082D01*
X657667Y1102082D01*
X655598Y1100013D01*
X655598Y1097870D01*
X655570Y1097727D01*
X655486Y1097601D01*
X636642Y1078757D01*
X636533Y1078680D01*
X636385Y1078645D01*
X636236Y1078671D01*
X636108Y1078752D01*
X636022Y1078877D01*
X635992Y1079026D01*
X635992Y1080963D01*
X633923Y1083032D01*
X630997Y1083032D01*
X629482Y1081517D01*
X629361Y1081435D01*
X629212Y1081405D01*
X346387Y1081405D01*
X346244Y1081433D01*
X346118Y1081517D01*
X338924Y1088711D01*
X338842Y1088831D01*
X338812Y1088980D01*
X338812Y1091123D01*
X336743Y1093192D01*
X333817Y1093192D01*
X331748Y1091123D01*
X331748Y1088197D01*
X333817Y1086128D01*
X335960Y1086128D01*
X336103Y1086100D01*
X336230Y1086016D01*
X343747Y1078499D01*
X343826Y1078384D01*
X343858Y1078236D01*
X343830Y1078087D01*
X343747Y1077961D01*
X200025Y934239D01*
X200025Y744928D01*
X199997Y744785D01*
X199913Y744658D01*
X198398Y743143D01*
X198398Y740217D01*
X200467Y738148D01*
X203393Y738148D01*
X205462Y740217D01*
X205462Y743143D01*
X203947Y744658D01*
X203865Y744779D01*
X203835Y744928D01*
X203835Y932503D01*
X203863Y932646D01*
X203947Y932773D01*
X294268Y1023094D01*
X294377Y1023170D01*
X294525Y1023205D01*
X294674Y1023179D01*
X294802Y1023098D01*
X294888Y1022973D01*
X294918Y1022824D01*
X294918Y1022157D01*
X296987Y1020088D01*
X299130Y1020088D01*
X299273Y1020060D01*
X299400Y1019976D01*
X385291Y934085D01*
X481892Y934085D01*
X482035Y934057D01*
X482162Y933973D01*
X483677Y932458D01*
X486603Y932458D01*
X488672Y934527D01*
X488672Y937453D01*
X486603Y939522D01*
X483677Y939522D01*
X482162Y938007D01*
X482041Y937925D01*
X481892Y937895D01*
X387027Y937895D01*
X386884Y937923D01*
X386758Y938007D01*
X302094Y1022671D01*
X302012Y1022791D01*
X301982Y1022940D01*
X301982Y1025083D01*
X299913Y1027152D01*
X299246Y1027152D01*
X299114Y1027175D01*
X298985Y1027255D01*
X298898Y1027379D01*
X298865Y1027527D01*
X298893Y1027676D01*
X298977Y1027802D01*
X348658Y1077483D01*
X348778Y1077565D01*
X348927Y1077595D01*
X629212Y1077595D01*
X629355Y1077567D01*
X629482Y1077483D01*
X630997Y1075968D01*
X632934Y1075968D01*
X633066Y1075945D01*
X633195Y1075865D01*
X633283Y1075741D01*
X633315Y1075593D01*
X633287Y1075444D01*
X633204Y1075318D01*
X479383Y921497D01*
X479262Y921415D01*
X479113Y921385D01*
X449018Y921385D01*
X448875Y921413D01*
X448748Y921497D01*
X447233Y923012D01*
X444307Y923012D01*
X442238Y920943D01*
X442238Y918800D01*
X442210Y918657D01*
X442126Y918531D01*
X155575Y631979D01*
X155575Y624278D01*
X155547Y624135D01*
X155463Y624008D01*
X154955Y623500D01*
X154846Y623424D01*
X154698Y623389D01*
X154549Y623414D01*
X154421Y623496D01*
X154335Y623621D01*
X154305Y623770D01*
X154305Y714529D01*
X129017Y739818D01*
X128935Y739938D01*
X128905Y740087D01*
X128905Y920042D01*
X128933Y920185D01*
X129017Y920312D01*
X130532Y921827D01*
X130532Y923970D01*
X130560Y924113D01*
X130644Y924240D01*
X184471Y978066D01*
X184591Y978148D01*
X184740Y978178D01*
X186883Y978178D01*
X188952Y980247D01*
X188952Y983173D01*
X186883Y985242D01*
X183957Y985242D01*
X181888Y983173D01*
X181888Y981030D01*
X181860Y980887D01*
X181776Y980761D01*
X127950Y926934D01*
X127829Y926852D01*
X127680Y926822D01*
X125537Y926822D01*
X124475Y925760D01*
X124366Y925684D01*
X124218Y925649D01*
X124069Y925674D01*
X123941Y925756D01*
X123855Y925881D01*
X123825Y926030D01*
X123825Y969333D01*
X123853Y969476D01*
X123937Y969603D01*
X164151Y1009816D01*
X164271Y1009898D01*
X164420Y1009928D01*
X166563Y1009928D01*
X168632Y1011997D01*
X168632Y1014923D01*
X166563Y1016992D01*
X163637Y1016992D01*
X161568Y1014923D01*
X161568Y1012780D01*
X161540Y1012637D01*
X161456Y1012511D01*
X120015Y971069D01*
X120015Y915108D01*
X119987Y914965D01*
X119903Y914838D01*
X118388Y913323D01*
X118388Y910397D01*
X119903Y908882D01*
X119985Y908761D01*
X120015Y908612D01*
X120015Y739621D01*
X123059Y736576D01*
X123136Y736467D01*
X123171Y736319D01*
X123145Y736170D01*
X123064Y736042D01*
X122939Y735956D01*
X122790Y735926D01*
X64230Y735926D01*
X64092Y735952D01*
X63965Y736033D01*
X63879Y736158D01*
X63849Y736307D01*
X63849Y1109535D01*
X63874Y1109671D01*
X63955Y1109799D01*
X64080Y1109885D01*
X64229Y1109916D01*
X272016Y1110415D01*
X272135Y1110396D01*
X272267Y1110321D01*
X272359Y1110201D01*
X273856Y1107131D01*
X273895Y1106964D01*
X273895Y1106546D01*
X274332Y1106109D01*
X274405Y1106006D01*
X274676Y1105451D01*
X275071Y1105315D01*
X275217Y1105224D01*
X275513Y1104928D01*
X276131Y1104928D01*
X276255Y1104907D01*
X276839Y1104706D01*
X277215Y1104889D01*
X277382Y1104928D01*
X740852Y1104928D01*
X742470Y1106546D01*
X742470Y1113233D01*
X742496Y1113370D01*
X742578Y1113498D01*
X742703Y1113584D01*
X742851Y1113614D01*
X984489Y1113614D01*
X984627Y1113588D01*
X984754Y1113506D01*
X984840Y1113381D01*
X984870Y1113233D01*
X984870Y671598D01*
X986265Y670203D01*
X1762338Y670203D01*
X1762475Y670177D01*
X1762603Y670096D01*
X1762689Y669971D01*
X1762719Y669822D01*
X1762719Y2508D01*
X1762693Y2371D01*
X1762612Y2243D01*
X1762487Y2157D01*
X1762338Y2127D01*
X1032879Y2127D01*
X1032742Y2153D01*
X1032614Y2234D01*
X1032529Y2359D01*
X1032498Y2508D01*
X1032498Y100988D01*
X1031178Y102308D01*
X847360Y102308D01*
X846039Y100988D01*
X846039Y1997D01*
X846014Y1860D01*
X845932Y1732D01*
X845807Y1646D01*
G37*
%LPC*%
G36*
X98867Y945158D02*
X101793Y945158D01*
X103862Y947227D01*
X103862Y949370D01*
X103890Y949513D01*
X103974Y949640D01*
X104775Y950441D01*
X104775Y965762D01*
X104803Y965905D01*
X104887Y966032D01*
X106402Y967547D01*
X106402Y970473D01*
X104333Y972542D01*
X101407Y972542D01*
X99338Y970473D01*
X99338Y967547D01*
X100853Y966032D01*
X100935Y965911D01*
X100965Y965762D01*
X100965Y952603D01*
X100939Y952466D01*
X100858Y952338D01*
X100733Y952252D01*
X100584Y952222D01*
X98867Y952222D01*
X96798Y950153D01*
X96798Y947227D01*
X98867Y945158D01*
G37*
G36*
X1711388Y565747D02*
X1715737Y565747D01*
X1718812Y568822D01*
X1718812Y573171D01*
X1715737Y576247D01*
X1711388Y576247D01*
X1708312Y573171D01*
X1708312Y568822D01*
X1711388Y565747D01*
G37*
G36*
X1711388Y507947D02*
X1715737Y507947D01*
X1718812Y511022D01*
X1718812Y515371D01*
X1715737Y518447D01*
X1711388Y518447D01*
X1708312Y515371D01*
X1708312Y511022D01*
X1711388Y507947D01*
G37*
%LPD*%
G36*
X1566313Y409605D02*
X1566164Y409575D01*
X1379420Y409575D01*
X1379288Y409598D01*
X1379159Y409678D01*
X1379071Y409802D01*
X1379039Y409950D01*
X1379067Y410099D01*
X1379150Y410225D01*
X1380212Y411287D01*
X1380212Y414213D01*
X1378143Y416282D01*
X1375217Y416282D01*
X1373702Y414767D01*
X1373581Y414685D01*
X1373432Y414655D01*
X1229037Y414655D01*
X1228894Y414683D01*
X1228768Y414767D01*
X1215917Y427618D01*
X1215840Y427727D01*
X1215805Y427875D01*
X1215831Y428024D01*
X1215912Y428152D01*
X1216037Y428238D01*
X1216186Y428268D01*
X1216853Y428268D01*
X1218922Y430337D01*
X1218922Y432480D01*
X1218950Y432623D01*
X1219034Y432750D01*
X1320428Y534144D01*
X1320537Y534220D01*
X1320685Y534255D01*
X1320834Y534229D01*
X1320962Y534148D01*
X1321048Y534023D01*
X1321078Y533874D01*
X1321078Y533207D01*
X1322593Y531692D01*
X1322675Y531571D01*
X1322705Y531422D01*
X1322705Y527758D01*
X1322677Y527615D01*
X1322593Y527488D01*
X1321078Y525973D01*
X1321078Y523047D01*
X1323147Y520978D01*
X1326073Y520978D01*
X1328142Y523047D01*
X1328142Y525973D01*
X1326627Y527488D01*
X1326545Y527609D01*
X1326515Y527758D01*
X1326515Y531422D01*
X1326543Y531565D01*
X1326627Y531692D01*
X1327588Y532653D01*
X1327709Y532735D01*
X1327858Y532765D01*
X1377242Y532765D01*
X1377385Y532737D01*
X1377512Y532653D01*
X1379027Y531138D01*
X1381953Y531138D01*
X1384022Y533207D01*
X1384022Y533874D01*
X1384045Y534006D01*
X1384125Y534135D01*
X1384249Y534223D01*
X1384397Y534255D01*
X1384546Y534227D01*
X1384672Y534144D01*
X1417486Y501330D01*
X1417568Y501209D01*
X1417598Y501060D01*
X1417598Y498917D01*
X1419667Y496848D01*
X1422593Y496848D01*
X1424662Y498917D01*
X1424662Y501843D01*
X1422593Y503912D01*
X1420450Y503912D01*
X1420307Y503940D01*
X1420181Y504024D01*
X1413934Y510271D01*
X1413855Y510386D01*
X1413822Y510534D01*
X1413850Y510683D01*
X1413934Y510809D01*
X1528708Y625584D01*
X1528817Y625660D01*
X1528965Y625695D01*
X1529114Y625669D01*
X1529242Y625588D01*
X1529328Y625463D01*
X1529358Y625314D01*
X1529358Y624647D01*
X1531427Y622578D01*
X1533570Y622578D01*
X1533713Y622550D01*
X1533840Y622466D01*
X1571513Y584793D01*
X1571595Y584672D01*
X1571625Y584523D01*
X1571625Y509470D01*
X1571602Y509338D01*
X1571522Y509209D01*
X1571398Y509121D01*
X1571250Y509089D01*
X1571101Y509117D01*
X1570975Y509200D01*
X1569913Y510262D01*
X1566987Y510262D01*
X1564918Y508193D01*
X1564918Y505267D01*
X1566433Y503752D01*
X1566515Y503631D01*
X1566545Y503482D01*
X1566545Y409956D01*
X1566519Y409819D01*
X1566438Y409691D01*
X1566313Y409605D01*
G37*
G36*
X778220Y310545D02*
X778071Y310515D01*
X608007Y310515D01*
X607864Y310543D01*
X607738Y310627D01*
X474457Y443908D01*
X474375Y444028D01*
X474345Y444177D01*
X474345Y456719D01*
X389409Y541655D01*
X386280Y541655D01*
X386148Y541678D01*
X386019Y541758D01*
X385931Y541882D01*
X385899Y542030D01*
X385927Y542179D01*
X386010Y542305D01*
X387072Y543367D01*
X387072Y546293D01*
X385557Y547808D01*
X385475Y547929D01*
X385445Y548078D01*
X385445Y556583D01*
X385473Y556726D01*
X385557Y556853D01*
X395868Y567164D01*
X395977Y567240D01*
X396125Y567275D01*
X396274Y567249D01*
X396402Y567168D01*
X396488Y567043D01*
X396518Y566894D01*
X396518Y566227D01*
X398587Y564158D01*
X400730Y564158D01*
X400873Y564130D01*
X401000Y564046D01*
X521801Y443245D01*
X521877Y443136D01*
X521912Y442988D01*
X521886Y442839D01*
X521805Y442711D01*
X521680Y442625D01*
X521531Y442595D01*
X520138Y442595D01*
X519995Y442623D01*
X519868Y442707D01*
X518353Y444222D01*
X515427Y444222D01*
X513358Y442153D01*
X513358Y439227D01*
X515427Y437158D01*
X518353Y437158D01*
X519868Y438673D01*
X519989Y438755D01*
X520138Y438785D01*
X522293Y438785D01*
X522436Y438757D01*
X522563Y438673D01*
X561821Y399415D01*
X563172Y399415D01*
X563315Y399387D01*
X563442Y399303D01*
X564957Y397788D01*
X567883Y397788D01*
X569398Y399303D01*
X569519Y399385D01*
X569668Y399415D01*
X689933Y399415D01*
X690076Y399387D01*
X690203Y399303D01*
X778341Y311165D01*
X778417Y311056D01*
X778452Y310908D01*
X778426Y310759D01*
X778345Y310631D01*
X778220Y310545D01*
G37*
D10*
X98572Y523049D03*
X80572Y523049D03*
X98572Y505049D03*
X80572Y505049D03*
X98572Y487049D03*
X80572Y487049D03*
X98572Y469049D03*
X80572Y469049D03*
D11*
X1319530Y433070D02*
X1346200Y433070D01*
X500380Y433070D02*
X488950Y433070D01*
X488950Y472440D01*
X420370Y541020D01*
X138430Y570230D02*
X138430Y582930D01*
X170180Y614680D01*
X323850Y1073150D02*
X335280Y1073150D01*
X323850Y1073150D02*
X321310Y1075690D01*
X295910Y614680D02*
X170180Y614680D01*
X500380Y433070D02*
X619760Y313690D01*
X501650Y433070D02*
X500380Y433070D01*
D12*
X1319530Y433070D03*
X1346200Y433070D03*
X501650Y433070D03*
X488950Y433070D03*
X420370Y541020D03*
X138430Y570230D03*
X170180Y614680D03*
X335280Y1073150D03*
X321310Y1075690D03*
X295910Y614680D03*
X619760Y313690D03*
D11*
X157480Y621030D02*
X157480Y631190D01*
X242570Y716280D02*
X445770Y919480D01*
X242570Y716280D02*
X157480Y631190D01*
X614680Y462280D02*
X614680Y429260D01*
X614680Y462280D02*
X425450Y651510D01*
X307340Y651510D01*
X242570Y716280D01*
X480060Y919480D02*
X659130Y1098550D01*
X480060Y919480D02*
X445770Y919480D01*
D12*
X157480Y621030D03*
X445770Y919480D03*
X614680Y429260D03*
X659130Y1098550D03*
D11*
X1215390Y431800D02*
X1329690Y546100D01*
X1371600Y546100D01*
X1375410Y546100D02*
X1410970Y510540D01*
X1421130Y500380D01*
X1375410Y546100D02*
X1371600Y546100D01*
X1410970Y510540D02*
X1553210Y652780D01*
D12*
X1215390Y431800D03*
X1371600Y546100D03*
X1421130Y500380D03*
X1553210Y652780D03*
D11*
X1573530Y495300D02*
X1573530Y252730D01*
X1643380Y182880D01*
X549910Y656590D02*
X309880Y656590D01*
X1573530Y585470D02*
X1573530Y495300D01*
X1573530Y585470D02*
X1532890Y626110D01*
D12*
X1573530Y495300D03*
X1643380Y182880D03*
X309880Y656590D03*
X549910Y656590D03*
X1532890Y626110D03*
D11*
X1568450Y407670D02*
X1568450Y234950D01*
X1568450Y407670D02*
X1568450Y506730D01*
X1568450Y234950D02*
X1624330Y179070D01*
X1624330Y114300D01*
X365760Y690880D02*
X355600Y701040D01*
X365760Y690880D02*
X758190Y690880D01*
X929640Y519430D01*
X1043940Y407670D02*
X1568450Y407670D01*
X1043940Y407670D02*
X932180Y519430D01*
X929640Y519430D01*
D12*
X1568450Y506730D03*
X1624330Y179070D03*
X1624330Y114300D03*
X355600Y701040D03*
X929640Y519430D03*
D11*
X121920Y911860D02*
X121920Y970280D01*
X165100Y1013460D01*
X840740Y177800D02*
X805180Y142240D01*
X397510Y571500D02*
X397510Y631190D01*
X397510Y571500D02*
X383540Y557530D01*
X383540Y544830D01*
X452120Y384810D02*
X452120Y373380D01*
X121920Y740410D02*
X121920Y911860D01*
X121920Y740410D02*
X133350Y728980D01*
X133350Y581660D01*
X386080Y935990D02*
X485140Y935990D01*
X386080Y935990D02*
X298450Y1023620D01*
D12*
X121920Y911860D03*
X165100Y1013460D03*
X840740Y177800D03*
X805180Y142240D03*
X397510Y631190D03*
X383540Y544830D03*
X452120Y384810D03*
X452120Y373380D03*
X133350Y581660D03*
X485140Y935990D03*
X298450Y1023620D03*
D11*
X378460Y629920D02*
X378460Y557530D01*
X102870Y951230D02*
X102870Y969010D01*
X102870Y951230D02*
X100330Y948690D01*
X298450Y629920D02*
X378460Y629920D01*
X298450Y629920D02*
X245110Y683260D01*
D12*
X378460Y629920D03*
X378460Y557530D03*
X102870Y969010D03*
X100330Y948690D03*
X245110Y683260D03*
D11*
X783590Y137160D02*
X924560Y137160D01*
X243840Y566420D02*
X222250Y566420D01*
X243840Y566420D02*
X287020Y609600D01*
X190500Y598170D02*
X160020Y598170D01*
X190500Y598170D02*
X222250Y566420D01*
X596900Y137160D02*
X783590Y137160D01*
X596900Y137160D02*
X204470Y529590D01*
X204470Y548640D01*
X222250Y566420D01*
D12*
X924560Y137160D03*
X783590Y137160D03*
X222250Y566420D03*
X287020Y609600D03*
X160020Y598170D03*
D11*
X127000Y923290D02*
X185420Y981710D01*
X927100Y157480D02*
X933450Y157480D01*
X927100Y157480D02*
X778510Y306070D01*
X605790Y306070D01*
X469900Y441960D01*
X469900Y454660D01*
X387350Y537210D01*
X378460Y537210D01*
X359410Y556260D01*
X406400Y567690D02*
X454660Y615950D01*
X346710Y543560D02*
X300990Y543560D01*
X209550Y543560D01*
X346710Y543560D02*
X359410Y556260D01*
X127000Y739140D02*
X127000Y923290D01*
X127000Y739140D02*
X152400Y713740D01*
X152400Y619760D01*
X156210Y615950D01*
X165100Y615950D01*
X168910Y619760D01*
X297180Y619760D01*
X300990Y615950D01*
X300990Y543560D01*
D12*
X127000Y923290D03*
X185420Y981710D03*
X933450Y157480D03*
X359410Y556260D03*
X454660Y615950D03*
X406400Y567690D03*
X209550Y543560D03*
D11*
X298450Y765810D02*
X645160Y765810D01*
X915670Y1036320D01*
X877570Y335280D02*
X877570Y328930D01*
X877570Y335280D02*
X524510Y688340D01*
X309880Y688340D01*
X293370Y704850D01*
X293370Y760730D01*
X298450Y765810D01*
D12*
X298450Y765810D03*
X915670Y1036320D03*
X877570Y328930D03*
D11*
X764540Y355600D02*
X764540Y441960D01*
X764540Y355600D02*
X835660Y284480D01*
X930910Y189230D01*
D12*
X764540Y441960D03*
X764540Y355600D03*
X835660Y284480D03*
X930910Y189230D03*
D11*
X948690Y157480D02*
X1036320Y157480D01*
X313690Y496570D02*
X243840Y496570D01*
X313690Y496570D02*
X599440Y210820D01*
X869950Y210820D01*
X928370Y152400D01*
X943610Y152400D01*
X948690Y157480D01*
D12*
X948690Y157480D03*
X1036320Y157480D03*
X243840Y496570D03*
D11*
X989330Y140970D02*
X1038860Y140970D01*
X989330Y140970D02*
X957580Y140970D01*
X215900Y563880D02*
X215900Y566420D01*
X215900Y563880D02*
X201930Y549910D01*
X201930Y528320D01*
X599440Y130810D01*
X985520Y130810D01*
X989330Y134620D01*
X989330Y140970D01*
D12*
X957580Y140970D03*
X1038860Y140970D03*
X215900Y566420D03*
D11*
X361950Y701040D02*
X835660Y701040D01*
D12*
X361950Y701040D03*
X835660Y701040D03*
D11*
X924560Y167640D02*
X933450Y167640D01*
X924560Y167640D02*
X690880Y401320D01*
X566420Y401320D01*
X523240Y440690D02*
X516890Y440690D01*
X523240Y440690D02*
X562610Y401320D01*
X566420Y401320D01*
X433070Y485140D02*
X331470Y485140D01*
X433070Y485140D02*
X464820Y453390D01*
X1003300Y441960D02*
X1003300Y237490D01*
X933450Y167640D01*
D12*
X933450Y167640D03*
X566420Y401320D03*
X516890Y440690D03*
X331470Y485140D03*
X464820Y453390D03*
X1003300Y441960D03*
D11*
X539750Y434340D02*
X533400Y434340D01*
X400050Y567690D01*
D12*
X539750Y434340D03*
X400050Y567690D03*
D11*
X347980Y1079500D02*
X345440Y1079500D01*
X347980Y1079500D02*
X632460Y1079500D01*
X345440Y1079500D02*
X335280Y1089660D01*
X201930Y933450D02*
X201930Y741680D01*
X201930Y933450D02*
X347980Y1079500D01*
D12*
X632460Y1079500D03*
X335280Y1089660D03*
X201930Y741680D03*
D11*
X298450Y706120D02*
X934720Y706120D01*
X1228090Y412750D01*
X1376680Y412750D01*
D12*
X298450Y706120D03*
X1376680Y412750D03*
D11*
X953770Y162560D02*
X925830Y162560D01*
X779780Y308610D01*
X607060Y308610D01*
X472440Y443230D01*
X472440Y455930D01*
X388620Y539750D01*
X382270Y539750D01*
X227330Y694690D01*
D12*
X953770Y162560D03*
X227330Y694690D03*
D11*
X1324610Y534670D02*
X1324610Y524510D01*
X1324610Y534670D02*
X1380490Y534670D01*
D12*
X1324610Y534670D03*
X1324610Y524510D03*
X1380490Y534670D03*
D11*
X892810Y274320D02*
X892810Y257810D01*
X942340Y208280D01*
D12*
X892810Y274320D03*
X942340Y208280D03*
D11*
X932180Y135890D02*
X984250Y135890D01*
X932180Y135890D02*
X862330Y205740D01*
D12*
X984250Y135890D03*
X862330Y205740D03*
M02*
