G04 EAGLE Gerber RS-274X export*
G75*
%MOMM*%
%FSLAX34Y34*%
%LPD*%
%INSilkscreen Bottom*%
%IPPOS*%
%AMOC8*
5,1,8,0,0,1.08239X$1,22.5*%
G01*
G04 Define Apertures*
%ADD10C,0.130000*%
%ADD11C,0.130000*%
G36*
X1015152Y34006D02*
X1014616Y34012D01*
X1014096Y34030D01*
X1013592Y34059D01*
X1013105Y34100D01*
X1012634Y34153D01*
X1012179Y34217D01*
X1011741Y34293D01*
X1011318Y34381D01*
X1010913Y34480D01*
X1010523Y34591D01*
X1010150Y34714D01*
X1009793Y34848D01*
X1009452Y34994D01*
X1009127Y35152D01*
X1008819Y35322D01*
X1008527Y35503D01*
X1008253Y35696D01*
X1007996Y35900D01*
X1007756Y36117D01*
X1007535Y36344D01*
X1007331Y36583D01*
X1007144Y36834D01*
X1006976Y37097D01*
X1006825Y37371D01*
X1006692Y37657D01*
X1006577Y37954D01*
X1006480Y38263D01*
X1006400Y38583D01*
X1006338Y38915D01*
X1006293Y39259D01*
X1006267Y39614D01*
X1006258Y39981D01*
X1006267Y40348D01*
X1006294Y40703D01*
X1006338Y41048D01*
X1006401Y41381D01*
X1006481Y41702D01*
X1006579Y42012D01*
X1006695Y42311D01*
X1006828Y42599D01*
X1006980Y42875D01*
X1007149Y43139D01*
X1007336Y43393D01*
X1007541Y43635D01*
X1007764Y43866D01*
X1008005Y44085D01*
X1008263Y44293D01*
X1008540Y44489D01*
X1008833Y44674D01*
X1009142Y44847D01*
X1009467Y45008D01*
X1009809Y45158D01*
X1010166Y45295D01*
X1010539Y45420D01*
X1010928Y45534D01*
X1011334Y45635D01*
X1011755Y45724D01*
X1012192Y45802D01*
X1012646Y45868D01*
X1013115Y45921D01*
X1013600Y45963D01*
X1014102Y45993D01*
X1014619Y46011D01*
X1015152Y46017D01*
X1016220Y45994D01*
X1017219Y45926D01*
X1017694Y45875D01*
X1018152Y45812D01*
X1018593Y45739D01*
X1019017Y45653D01*
X1019424Y45557D01*
X1019814Y45449D01*
X1020187Y45330D01*
X1020544Y45199D01*
X1020884Y45057D01*
X1021206Y44904D01*
X1021512Y44739D01*
X1021801Y44563D01*
X1022073Y44375D01*
X1022328Y44175D01*
X1022564Y43962D01*
X1022784Y43736D01*
X1022985Y43498D01*
X1023170Y43248D01*
X1023336Y42985D01*
X1023485Y42709D01*
X1023617Y42421D01*
X1023731Y42120D01*
X1023827Y41807D01*
X1023906Y41482D01*
X1023968Y41144D01*
X1024011Y40793D01*
X1024038Y40430D01*
X1024047Y40055D01*
X1024038Y39669D01*
X1024012Y39296D01*
X1023968Y38936D01*
X1023908Y38590D01*
X1023830Y38256D01*
X1023734Y37936D01*
X1023622Y37629D01*
X1023491Y37336D01*
X1023344Y37055D01*
X1023179Y36788D01*
X1022997Y36533D01*
X1022798Y36292D01*
X1022581Y36065D01*
X1022346Y35850D01*
X1022095Y35648D01*
X1021826Y35460D01*
X1021540Y35284D01*
X1021236Y35119D01*
X1020915Y34966D01*
X1020576Y34824D01*
X1020220Y34693D01*
X1019847Y34574D01*
X1019456Y34466D01*
X1019047Y34370D01*
X1018621Y34285D01*
X1018178Y34211D01*
X1017717Y34148D01*
X1017239Y34097D01*
X1016744Y34057D01*
X1016231Y34029D01*
X1015152Y34006D01*
G37*
%LPC*%
G36*
X1015152Y36239D02*
X1016067Y36253D01*
X1016914Y36295D01*
X1017695Y36364D01*
X1018409Y36461D01*
X1019057Y36587D01*
X1019638Y36739D01*
X1020152Y36920D01*
X1020599Y37129D01*
X1020987Y37369D01*
X1021324Y37645D01*
X1021608Y37957D01*
X1021841Y38305D01*
X1022023Y38688D01*
X1022094Y38894D01*
X1022152Y39108D01*
X1022197Y39331D01*
X1022230Y39563D01*
X1022249Y39804D01*
X1022255Y40055D01*
X1022249Y40299D01*
X1022229Y40534D01*
X1022196Y40760D01*
X1022150Y40978D01*
X1022091Y41187D01*
X1022019Y41387D01*
X1021835Y41761D01*
X1021599Y42100D01*
X1021310Y42404D01*
X1020969Y42673D01*
X1020575Y42907D01*
X1020122Y43110D01*
X1019606Y43285D01*
X1019024Y43434D01*
X1018379Y43556D01*
X1017669Y43650D01*
X1016894Y43718D01*
X1016055Y43758D01*
X1015152Y43772D01*
X1014280Y43758D01*
X1013465Y43715D01*
X1012709Y43644D01*
X1012012Y43545D01*
X1011372Y43417D01*
X1010791Y43261D01*
X1010268Y43077D01*
X1009803Y42864D01*
X1009395Y42621D01*
X1009041Y42345D01*
X1008742Y42036D01*
X1008497Y41695D01*
X1008395Y41513D01*
X1008306Y41322D01*
X1008231Y41123D01*
X1008170Y40916D01*
X1008123Y40700D01*
X1008088Y40477D01*
X1008068Y40245D01*
X1008061Y40005D01*
X1008068Y39764D01*
X1008088Y39531D01*
X1008121Y39307D01*
X1008168Y39090D01*
X1008228Y38882D01*
X1008301Y38682D01*
X1008488Y38308D01*
X1008727Y37966D01*
X1009020Y37658D01*
X1009367Y37383D01*
X1009767Y37141D01*
X1010224Y36930D01*
X1010743Y36746D01*
X1011323Y36591D01*
X1011966Y36465D01*
X1012670Y36366D01*
X1013435Y36295D01*
X1014263Y36253D01*
X1015152Y36239D01*
G37*
%LPD*%
G36*
X1015152Y54944D02*
X1014616Y54950D01*
X1014096Y54967D01*
X1013592Y54996D01*
X1013105Y55037D01*
X1012634Y55090D01*
X1012179Y55154D01*
X1011741Y55230D01*
X1011318Y55318D01*
X1010913Y55417D01*
X1010523Y55529D01*
X1010150Y55651D01*
X1009793Y55786D01*
X1009452Y55932D01*
X1009127Y56090D01*
X1008819Y56259D01*
X1008527Y56441D01*
X1008253Y56633D01*
X1007996Y56838D01*
X1007756Y57054D01*
X1007535Y57282D01*
X1007331Y57521D01*
X1007144Y57772D01*
X1006976Y58034D01*
X1006825Y58308D01*
X1006692Y58594D01*
X1006577Y58891D01*
X1006480Y59200D01*
X1006400Y59521D01*
X1006338Y59853D01*
X1006293Y60196D01*
X1006267Y60552D01*
X1006258Y60918D01*
X1006267Y61285D01*
X1006294Y61641D01*
X1006338Y61985D01*
X1006401Y62318D01*
X1006481Y62640D01*
X1006579Y62950D01*
X1006695Y63249D01*
X1006828Y63536D01*
X1006980Y63812D01*
X1007149Y64077D01*
X1007336Y64330D01*
X1007541Y64572D01*
X1007764Y64803D01*
X1008005Y65022D01*
X1008263Y65230D01*
X1008540Y65427D01*
X1008833Y65612D01*
X1009142Y65785D01*
X1009467Y65946D01*
X1009809Y66095D01*
X1010166Y66232D01*
X1010539Y66358D01*
X1010928Y66471D01*
X1011334Y66572D01*
X1011755Y66662D01*
X1012192Y66740D01*
X1012646Y66805D01*
X1013115Y66859D01*
X1013600Y66901D01*
X1014102Y66930D01*
X1014619Y66948D01*
X1015152Y66954D01*
X1016220Y66932D01*
X1017219Y66863D01*
X1017694Y66812D01*
X1018152Y66750D01*
X1018593Y66676D01*
X1019017Y66591D01*
X1019424Y66494D01*
X1019814Y66386D01*
X1020187Y66267D01*
X1020544Y66137D01*
X1020884Y65995D01*
X1021206Y65841D01*
X1021512Y65677D01*
X1021801Y65501D01*
X1022073Y65313D01*
X1022328Y65112D01*
X1022564Y64899D01*
X1022784Y64674D01*
X1022985Y64436D01*
X1023170Y64185D01*
X1023336Y63922D01*
X1023485Y63647D01*
X1023617Y63358D01*
X1023731Y63058D01*
X1023827Y62745D01*
X1023906Y62419D01*
X1023968Y62081D01*
X1024011Y61731D01*
X1024038Y61368D01*
X1024047Y60992D01*
X1024038Y60606D01*
X1024012Y60233D01*
X1023968Y59874D01*
X1023908Y59527D01*
X1023830Y59194D01*
X1023734Y58874D01*
X1023622Y58567D01*
X1023491Y58273D01*
X1023344Y57993D01*
X1023179Y57725D01*
X1022997Y57471D01*
X1022798Y57230D01*
X1022581Y57002D01*
X1022346Y56787D01*
X1022095Y56586D01*
X1021826Y56398D01*
X1021540Y56222D01*
X1021236Y56057D01*
X1020915Y55904D01*
X1020576Y55762D01*
X1020220Y55631D01*
X1019847Y55512D01*
X1019456Y55404D01*
X1019047Y55307D01*
X1018621Y55222D01*
X1018178Y55148D01*
X1017717Y55086D01*
X1017239Y55035D01*
X1016744Y54995D01*
X1016231Y54967D01*
X1015152Y54944D01*
G37*
%LPC*%
G36*
X1015152Y57177D02*
X1016067Y57191D01*
X1016914Y57232D01*
X1017695Y57302D01*
X1018409Y57399D01*
X1019057Y57524D01*
X1019638Y57677D01*
X1020152Y57858D01*
X1020599Y58066D01*
X1020987Y58306D01*
X1021324Y58582D01*
X1021608Y58894D01*
X1021841Y59242D01*
X1022023Y59626D01*
X1022094Y59831D01*
X1022152Y60045D01*
X1022197Y60269D01*
X1022230Y60501D01*
X1022249Y60742D01*
X1022255Y60992D01*
X1022249Y61236D01*
X1022229Y61471D01*
X1022196Y61698D01*
X1022150Y61916D01*
X1022091Y62125D01*
X1022019Y62325D01*
X1021835Y62699D01*
X1021599Y63038D01*
X1021310Y63342D01*
X1020969Y63611D01*
X1020575Y63844D01*
X1020122Y64047D01*
X1019606Y64223D01*
X1019024Y64371D01*
X1018379Y64493D01*
X1017669Y64588D01*
X1016894Y64655D01*
X1016055Y64696D01*
X1015152Y64709D01*
X1014280Y64695D01*
X1013465Y64652D01*
X1012709Y64582D01*
X1012012Y64482D01*
X1011372Y64355D01*
X1010791Y64199D01*
X1010268Y64014D01*
X1009803Y63801D01*
X1009395Y63558D01*
X1009041Y63282D01*
X1008742Y62974D01*
X1008497Y62633D01*
X1008395Y62450D01*
X1008306Y62259D01*
X1008231Y62060D01*
X1008170Y61853D01*
X1008123Y61638D01*
X1008088Y61414D01*
X1008068Y61183D01*
X1008061Y60943D01*
X1008068Y60702D01*
X1008088Y60469D01*
X1008121Y60244D01*
X1008168Y60028D01*
X1008228Y59820D01*
X1008301Y59620D01*
X1008488Y59245D01*
X1008727Y58904D01*
X1009020Y58596D01*
X1009367Y58320D01*
X1009767Y58078D01*
X1010224Y57867D01*
X1010743Y57684D01*
X1011323Y57529D01*
X1011966Y57402D01*
X1012670Y57303D01*
X1013435Y57233D01*
X1014263Y57191D01*
X1015152Y57177D01*
G37*
%LPD*%
G36*
X1015152Y68913D02*
X1014616Y68918D01*
X1014096Y68936D01*
X1013592Y68965D01*
X1013105Y69006D01*
X1012634Y69059D01*
X1012179Y69123D01*
X1011741Y69199D01*
X1011318Y69287D01*
X1010913Y69386D01*
X1010523Y69497D01*
X1010150Y69620D01*
X1009793Y69754D01*
X1009452Y69901D01*
X1009127Y70059D01*
X1008819Y70228D01*
X1008527Y70409D01*
X1008253Y70602D01*
X1007996Y70807D01*
X1007756Y71023D01*
X1007535Y71250D01*
X1007331Y71490D01*
X1007144Y71741D01*
X1006976Y72003D01*
X1006825Y72277D01*
X1006692Y72563D01*
X1006577Y72860D01*
X1006480Y73169D01*
X1006400Y73489D01*
X1006338Y73821D01*
X1006293Y74165D01*
X1006267Y74520D01*
X1006258Y74887D01*
X1006267Y75254D01*
X1006294Y75610D01*
X1006338Y75954D01*
X1006401Y76287D01*
X1006481Y76608D01*
X1006579Y76919D01*
X1006695Y77217D01*
X1006828Y77505D01*
X1006980Y77781D01*
X1007149Y78046D01*
X1007336Y78299D01*
X1007541Y78541D01*
X1007764Y78772D01*
X1008005Y78991D01*
X1008263Y79199D01*
X1008540Y79396D01*
X1008833Y79581D01*
X1009142Y79754D01*
X1009467Y79915D01*
X1009809Y80064D01*
X1010166Y80201D01*
X1010539Y80326D01*
X1010928Y80440D01*
X1011334Y80541D01*
X1011755Y80631D01*
X1012192Y80708D01*
X1012646Y80774D01*
X1013115Y80828D01*
X1013600Y80869D01*
X1014102Y80899D01*
X1014619Y80917D01*
X1015152Y80923D01*
X1016220Y80900D01*
X1017219Y80832D01*
X1017694Y80781D01*
X1018152Y80719D01*
X1018593Y80645D01*
X1019017Y80560D01*
X1019424Y80463D01*
X1019814Y80355D01*
X1020187Y80236D01*
X1020544Y80105D01*
X1020884Y79963D01*
X1021206Y79810D01*
X1021512Y79645D01*
X1021801Y79469D01*
X1022073Y79281D01*
X1022328Y79081D01*
X1022564Y78868D01*
X1022784Y78642D01*
X1022985Y78404D01*
X1023170Y78154D01*
X1023336Y77891D01*
X1023485Y77615D01*
X1023617Y77327D01*
X1023731Y77027D01*
X1023827Y76714D01*
X1023906Y76388D01*
X1023968Y76050D01*
X1024011Y75699D01*
X1024038Y75336D01*
X1024047Y74961D01*
X1024038Y74575D01*
X1024012Y74202D01*
X1023968Y73842D01*
X1023908Y73496D01*
X1023830Y73163D01*
X1023734Y72843D01*
X1023622Y72536D01*
X1023491Y72242D01*
X1023344Y71961D01*
X1023179Y71694D01*
X1022997Y71440D01*
X1022798Y71199D01*
X1022581Y70971D01*
X1022346Y70756D01*
X1022095Y70555D01*
X1021826Y70366D01*
X1021540Y70190D01*
X1021236Y70026D01*
X1020915Y69872D01*
X1020576Y69730D01*
X1020220Y69600D01*
X1019847Y69480D01*
X1019456Y69373D01*
X1019047Y69276D01*
X1018621Y69191D01*
X1018178Y69117D01*
X1017717Y69055D01*
X1017239Y69003D01*
X1016744Y68964D01*
X1016231Y68935D01*
X1015152Y68913D01*
G37*
%LPC*%
G36*
X1015152Y71145D02*
X1016067Y71159D01*
X1016914Y71201D01*
X1017695Y71270D01*
X1018409Y71368D01*
X1019057Y71493D01*
X1019638Y71646D01*
X1020152Y71826D01*
X1020599Y72035D01*
X1020987Y72275D01*
X1021324Y72551D01*
X1021608Y72863D01*
X1021841Y73211D01*
X1022023Y73595D01*
X1022094Y73800D01*
X1022152Y74014D01*
X1022197Y74237D01*
X1022230Y74470D01*
X1022249Y74711D01*
X1022255Y74961D01*
X1022249Y75205D01*
X1022229Y75440D01*
X1022196Y75667D01*
X1022150Y75884D01*
X1022091Y76093D01*
X1022019Y76293D01*
X1021835Y76668D01*
X1021599Y77007D01*
X1021310Y77310D01*
X1020969Y77579D01*
X1020575Y77813D01*
X1020122Y78016D01*
X1019606Y78191D01*
X1019024Y78340D01*
X1018379Y78462D01*
X1017669Y78556D01*
X1016894Y78624D01*
X1016055Y78664D01*
X1015152Y78678D01*
X1014280Y78664D01*
X1013465Y78621D01*
X1012709Y78550D01*
X1012012Y78451D01*
X1011372Y78323D01*
X1010791Y78167D01*
X1010268Y77983D01*
X1009803Y77770D01*
X1009395Y77527D01*
X1009041Y77251D01*
X1008742Y76943D01*
X1008497Y76602D01*
X1008395Y76419D01*
X1008306Y76228D01*
X1008231Y76029D01*
X1008170Y75822D01*
X1008123Y75607D01*
X1008088Y75383D01*
X1008068Y75151D01*
X1008061Y74912D01*
X1008068Y74670D01*
X1008088Y74438D01*
X1008121Y74213D01*
X1008168Y73997D01*
X1008228Y73789D01*
X1008301Y73589D01*
X1008488Y73214D01*
X1008727Y72873D01*
X1009020Y72564D01*
X1009367Y72289D01*
X1009767Y72047D01*
X1010224Y71836D01*
X1010743Y71653D01*
X1011323Y71498D01*
X1011966Y71371D01*
X1012670Y71272D01*
X1013435Y71202D01*
X1014263Y71159D01*
X1015152Y71145D01*
G37*
%LPD*%
G36*
X1008380Y20970D02*
X1006503Y20970D01*
X1006503Y31803D01*
X1008380Y31803D01*
X1008380Y27595D01*
X1023789Y27595D01*
X1023789Y25558D01*
X1020980Y21473D01*
X1018894Y21473D01*
X1021679Y25374D01*
X1008380Y25374D01*
X1008380Y20970D01*
G37*
G36*
X1009190Y49288D02*
X1006503Y49288D01*
X1006503Y51680D01*
X1009190Y51680D01*
X1009190Y49288D01*
G37*
D10*
X1030244Y0D02*
X1010528Y0D01*
D11*
X1030028Y99980D03*
D10*
X1030028Y99330D02*
X1030028Y650D01*
X1026836Y26000D01*
X1033221Y26000D01*
X1030028Y650D01*
X1028728Y26000D01*
X1031328Y26000D02*
X1030028Y650D01*
X1027428Y26000D01*
X1032628Y26000D02*
X1030028Y650D01*
X1026836Y73980D02*
X1030028Y99330D01*
X1026836Y73980D02*
X1033221Y73980D01*
X1030028Y99330D01*
X1028728Y73980D01*
X1031328Y73980D02*
X1030028Y99330D01*
X1027428Y73980D01*
X1032628Y73980D02*
X1030028Y99330D01*
M02*
