G04 EAGLE Gerber RS-274X export*
G75*
%MOMM*%
%FSLAX34Y34*%
%LPD*%
%INSoldermask Top*%
%IPPOS*%
%AMOC8*
5,1,8,0,0,1.08239X$1,22.5*%
G01*
G04 Define Apertures*
%ADD10R,1.103200X0.903200*%
%ADD11R,2.403200X2.203200*%
%ADD12R,0.903200X1.103200*%
%ADD13R,1.603200X1.603200*%
%ADD14R,1.003200X1.003200*%
%ADD15R,1.353200X1.003200*%
%ADD16R,1.003200X1.103200*%
%ADD17R,1.403200X0.803200*%
%ADD18R,1.003200X1.353200*%
%ADD19R,1.173200X1.143200*%
%ADD20R,1.143200X1.173200*%
%ADD21R,1.103200X0.803200*%
%ADD22R,1.403200X2.003200*%
%ADD23R,2.103200X1.603200*%
%ADD24R,1.703200X0.903200*%
%ADD25R,2.203200X1.403200*%
%ADD26R,1.553200X0.803200*%
%ADD27R,0.503200X1.003200*%
%ADD28R,0.603200X1.003200*%
%ADD29R,1.353200X0.503200*%
%ADD30R,2.203200X2.383200*%
%ADD31C,0.853200*%
%ADD32R,0.330200X0.330200*%
%ADD33R,1.403200X0.753200*%
%ADD34R,1.103200X1.003200*%
%ADD35R,0.703200X1.253200*%
%ADD36R,1.703200X3.803200*%
%ADD37R,0.738300X0.847200*%
%ADD38R,1.371600X1.803400*%
%ADD39R,0.152400X1.828800*%
%ADD40C,2.203200*%
%ADD41R,1.603200X1.253200*%
%ADD42C,0.269722*%
%ADD43R,1.103200X1.503200*%
%ADD44C,0.315166*%
%ADD45R,3.603200X4.503200*%
%ADD46R,1.103200X1.703200*%
%ADD47C,0.330503*%
%ADD48C,0.349006*%
%ADD49C,0.705600*%
%ADD50C,0.655600*%
D10*
X1670406Y107087D03*
X1670406Y120087D03*
X956764Y202892D03*
X956764Y215892D03*
X772577Y196970D03*
X772577Y183970D03*
X934594Y201059D03*
X934594Y214059D03*
X924324Y200034D03*
X924324Y213034D03*
X914054Y200153D03*
X914054Y213153D03*
X903784Y199068D03*
X903784Y212068D03*
X893514Y202898D03*
X893514Y215898D03*
X874610Y200230D03*
X874610Y213230D03*
D11*
X1361767Y408088D03*
X1361767Y438088D03*
D12*
X1617079Y464898D03*
X1630079Y464898D03*
X1302931Y541922D03*
X1289931Y541922D03*
X1233861Y507010D03*
X1246861Y507010D03*
D10*
X1418092Y410292D03*
X1418092Y397292D03*
X1699019Y108861D03*
X1699019Y121861D03*
X1569514Y475111D03*
X1569514Y488111D03*
X496423Y1064985D03*
X496423Y1077985D03*
X755557Y1100367D03*
X755557Y1087367D03*
X344135Y1088180D03*
X344135Y1075180D03*
X651915Y1078751D03*
X651915Y1091751D03*
X1204703Y431075D03*
X1204703Y418075D03*
X979032Y524183D03*
X979032Y511183D03*
D12*
X849600Y349199D03*
X862600Y349199D03*
D13*
X1013684Y512958D03*
X1013684Y534958D03*
D10*
X972107Y202618D03*
X972107Y215618D03*
D12*
X828129Y254530D03*
X841129Y254530D03*
D10*
X989228Y201092D03*
X989228Y214092D03*
X172299Y1019979D03*
X172299Y1006979D03*
D14*
X1235624Y438009D03*
X1235624Y423009D03*
D15*
X892061Y309348D03*
X857061Y309348D03*
D16*
X964720Y675538D03*
X943720Y675538D03*
X1280269Y506574D03*
X1301269Y506574D03*
D17*
X1639462Y505658D03*
X1639462Y515158D03*
X1639462Y524658D03*
X1614462Y524658D03*
X1614462Y515158D03*
X1614462Y505658D03*
D18*
X1013830Y333183D03*
X1013830Y298183D03*
D15*
X976959Y363134D03*
X1011959Y363134D03*
D19*
X649030Y555215D03*
X664030Y555215D03*
X333292Y617163D03*
X348292Y617163D03*
D20*
X402683Y543396D03*
X402683Y558396D03*
X473183Y433812D03*
X473183Y448812D03*
X524679Y432883D03*
X524679Y447883D03*
X414660Y435892D03*
X414660Y450892D03*
D21*
X1301919Y422718D03*
X1301919Y432218D03*
X1301919Y441718D03*
X1273919Y441718D03*
X1273919Y422718D03*
X505034Y925533D03*
X505034Y935033D03*
X505034Y944533D03*
X477034Y944533D03*
X477034Y925533D03*
D22*
X215849Y857037D03*
X215849Y914037D03*
D23*
X73349Y827037D03*
X83349Y958537D03*
D24*
X111849Y875037D03*
X115849Y886037D03*
X111849Y897037D03*
X109849Y908037D03*
X111849Y919037D03*
X109849Y930037D03*
X111849Y941037D03*
X111849Y952037D03*
D22*
X215849Y885537D03*
X215849Y942537D03*
D25*
X1752719Y164724D03*
X1752719Y220724D03*
D26*
X1715969Y177724D03*
X1715969Y187724D03*
X1715969Y197724D03*
X1715969Y207724D03*
D27*
X998245Y149482D03*
X993245Y149482D03*
X988245Y149482D03*
X983245Y149482D03*
X978245Y149482D03*
X973245Y149482D03*
X968245Y149482D03*
X963245Y149482D03*
X958245Y149482D03*
X953245Y149482D03*
X948245Y149482D03*
X943245Y149482D03*
X938245Y149482D03*
X933245Y149482D03*
X928245Y149482D03*
X923245Y149482D03*
X918245Y149482D03*
X913245Y149482D03*
X908245Y149482D03*
X903245Y149482D03*
X898245Y149482D03*
X893245Y149482D03*
X888245Y149482D03*
X883245Y149482D03*
D28*
X1008245Y124482D03*
X873245Y124482D03*
D29*
X1702812Y508597D03*
X1702812Y516597D03*
X1702812Y529597D03*
X1702812Y539597D03*
X1702812Y544597D03*
X1702812Y554597D03*
X1702812Y567597D03*
X1702812Y575597D03*
X1702812Y572597D03*
X1702812Y564597D03*
X1702812Y559597D03*
X1702812Y549597D03*
X1702812Y534597D03*
X1702812Y524597D03*
X1702812Y519597D03*
X1702812Y511597D03*
D30*
X1747862Y490997D03*
X1747862Y593197D03*
X1708562Y490997D03*
X1708562Y593197D03*
D31*
X1713562Y513197D03*
X1713562Y570997D03*
D32*
X798168Y322574D03*
X752448Y322574D03*
D33*
X1369891Y519676D03*
X1369891Y529176D03*
X1369891Y538676D03*
X1343889Y538676D03*
X1343889Y519676D03*
D34*
X878771Y269672D03*
X878771Y250672D03*
X899771Y260172D03*
D35*
X725964Y180803D03*
X738964Y180803D03*
X732464Y201803D03*
D16*
X1440172Y479121D03*
X1459172Y479121D03*
X1449672Y500121D03*
D10*
X252314Y493603D03*
X252314Y480603D03*
X215259Y1011637D03*
X215259Y1024637D03*
X769522Y122495D03*
X769522Y135495D03*
X369764Y558151D03*
X369764Y545151D03*
X986394Y633706D03*
X986394Y620706D03*
D12*
X957971Y657902D03*
X944971Y657902D03*
D10*
X844479Y693039D03*
X844479Y706039D03*
D12*
X1622677Y485982D03*
X1635677Y485982D03*
D10*
X1651557Y542635D03*
X1651557Y555635D03*
D36*
X1627588Y432310D03*
X1582588Y432310D03*
D10*
X611114Y1074562D03*
X611114Y1061562D03*
D12*
X1284840Y380398D03*
X1297840Y380398D03*
D10*
X1424382Y588503D03*
X1424382Y575503D03*
D37*
X725045Y141020D03*
X714895Y141020D03*
D10*
X711200Y957860D03*
X711200Y944860D03*
X258356Y1100254D03*
X258356Y1087254D03*
X1144532Y451667D03*
X1144532Y438667D03*
X1669848Y159022D03*
X1669848Y172022D03*
X1634709Y103507D03*
X1634709Y116507D03*
X804467Y212555D03*
X804467Y225555D03*
X760277Y200503D03*
X760277Y187503D03*
X471364Y379673D03*
X471364Y392673D03*
X559148Y408440D03*
X559148Y395440D03*
X514017Y398896D03*
X514017Y385896D03*
D12*
X915247Y279994D03*
X928247Y279994D03*
D38*
X720297Y117713D03*
X705057Y117713D03*
D39*
X712677Y117713D03*
D40*
X176182Y752633D03*
X1619872Y622151D03*
X1050713Y157270D03*
X228784Y753301D03*
X924945Y1046320D03*
X1304077Y581880D03*
X851823Y723207D03*
X815083Y1047923D03*
X764683Y522994D03*
X197452Y755395D03*
X1619795Y653387D03*
X77424Y1091659D03*
X874902Y1047386D03*
X103836Y1092841D03*
X571598Y753199D03*
X194319Y992907D03*
X1049873Y130588D03*
D41*
X723214Y1099678D03*
X688214Y1099678D03*
X688214Y1084678D03*
X723214Y1084678D03*
X573198Y1099577D03*
X538198Y1099577D03*
X538198Y1084577D03*
X573198Y1084577D03*
X320563Y1099542D03*
X285563Y1099542D03*
X285563Y1084542D03*
X320563Y1084542D03*
D42*
X1474083Y570576D02*
X1481019Y570576D01*
X1474083Y570576D02*
X1474083Y572612D01*
X1481019Y572612D01*
X1481019Y570576D01*
X1481019Y565576D02*
X1474083Y565576D01*
X1474083Y567612D01*
X1481019Y567612D01*
X1481019Y565576D01*
X1481019Y560576D02*
X1474083Y560576D01*
X1474083Y562612D01*
X1481019Y562612D01*
X1481019Y560576D01*
X1481019Y555576D02*
X1474083Y555576D01*
X1474083Y557612D01*
X1481019Y557612D01*
X1481019Y555576D01*
X1493783Y555576D02*
X1500719Y555576D01*
X1493783Y555576D02*
X1493783Y557612D01*
X1500719Y557612D01*
X1500719Y555576D01*
X1500719Y560576D02*
X1493783Y560576D01*
X1493783Y562612D01*
X1500719Y562612D01*
X1500719Y560576D01*
X1500719Y565576D02*
X1493783Y565576D01*
X1493783Y567612D01*
X1500719Y567612D01*
X1500719Y565576D01*
X1500719Y570576D02*
X1493783Y570576D01*
X1493783Y572612D01*
X1500719Y572612D01*
X1500719Y570576D01*
D43*
X1487401Y564094D03*
D44*
X401862Y660930D02*
X393582Y660930D01*
X393582Y664210D01*
X401862Y664210D01*
X401862Y660930D01*
X401862Y663924D02*
X393582Y663924D01*
X393582Y648230D02*
X401862Y648230D01*
X393582Y648230D02*
X393582Y651510D01*
X401862Y651510D01*
X401862Y648230D01*
X401862Y651224D02*
X393582Y651224D01*
X393582Y635530D02*
X401862Y635530D01*
X393582Y635530D02*
X393582Y638810D01*
X401862Y638810D01*
X401862Y635530D01*
X401862Y638524D02*
X393582Y638524D01*
X393582Y622830D02*
X401862Y622830D01*
X393582Y622830D02*
X393582Y626110D01*
X401862Y626110D01*
X401862Y622830D01*
X401862Y625824D02*
X393582Y625824D01*
X471482Y622830D02*
X479762Y622830D01*
X471482Y622830D02*
X471482Y626110D01*
X479762Y626110D01*
X479762Y622830D01*
X479762Y625824D02*
X471482Y625824D01*
X471482Y635530D02*
X479762Y635530D01*
X471482Y635530D02*
X471482Y638810D01*
X479762Y638810D01*
X479762Y635530D01*
X479762Y638524D02*
X471482Y638524D01*
X471482Y648230D02*
X479762Y648230D01*
X471482Y648230D02*
X471482Y651510D01*
X479762Y651510D01*
X479762Y648230D01*
X479762Y651224D02*
X471482Y651224D01*
X471482Y660930D02*
X479762Y660930D01*
X471482Y660930D02*
X471482Y664210D01*
X479762Y664210D01*
X479762Y660930D01*
X479762Y663924D02*
X471482Y663924D01*
D45*
X436672Y643520D03*
D46*
X138422Y554986D03*
X151122Y554986D03*
X163822Y554986D03*
X176522Y554986D03*
X189222Y554986D03*
X201922Y554986D03*
X214622Y554986D03*
X227322Y554986D03*
X240022Y554986D03*
X252722Y554986D03*
X265422Y554986D03*
X278122Y554986D03*
X290822Y554986D03*
X303522Y554986D03*
X303522Y729986D03*
X290822Y729986D03*
X278122Y729986D03*
X265422Y729986D03*
X252722Y729986D03*
X240022Y729986D03*
X227322Y729986D03*
X214622Y729986D03*
X201922Y729986D03*
X189222Y729986D03*
X176522Y729986D03*
X163822Y729986D03*
X151122Y729986D03*
X138422Y729986D03*
D14*
X195622Y627436D03*
X183122Y614936D03*
X183122Y627436D03*
X183122Y639936D03*
X195622Y614936D03*
X195622Y639936D03*
X208122Y614936D03*
X208122Y627436D03*
X208122Y639936D03*
D47*
X1629309Y197307D02*
X1638197Y197307D01*
X1629309Y197307D02*
X1629309Y201035D01*
X1638197Y201035D01*
X1638197Y197307D01*
X1638197Y200447D02*
X1629309Y200447D01*
X1629309Y189307D02*
X1638197Y189307D01*
X1629309Y189307D02*
X1629309Y193035D01*
X1638197Y193035D01*
X1638197Y189307D01*
X1638197Y192447D02*
X1629309Y192447D01*
X1629309Y181307D02*
X1638197Y181307D01*
X1629309Y181307D02*
X1629309Y185035D01*
X1638197Y185035D01*
X1638197Y181307D01*
X1638197Y184447D02*
X1629309Y184447D01*
X1629309Y173307D02*
X1638197Y173307D01*
X1629309Y173307D02*
X1629309Y177035D01*
X1638197Y177035D01*
X1638197Y173307D01*
X1638197Y176447D02*
X1629309Y176447D01*
X1609037Y173107D02*
X1600149Y173107D01*
X1600149Y176835D01*
X1609037Y176835D01*
X1609037Y173107D01*
X1609037Y176247D02*
X1600149Y176247D01*
X1600149Y181307D02*
X1609037Y181307D01*
X1600149Y181307D02*
X1600149Y185035D01*
X1609037Y185035D01*
X1609037Y181307D01*
X1609037Y184447D02*
X1600149Y184447D01*
X1600149Y189307D02*
X1609037Y189307D01*
X1600149Y189307D02*
X1600149Y193035D01*
X1609037Y193035D01*
X1609037Y189307D01*
X1609037Y192447D02*
X1600149Y192447D01*
X1600149Y197307D02*
X1609037Y197307D01*
X1600149Y197307D02*
X1600149Y201035D01*
X1609037Y201035D01*
X1609037Y197307D01*
X1609037Y200447D02*
X1600149Y200447D01*
D48*
X946594Y615285D02*
X946594Y634327D01*
X951036Y634327D01*
X951036Y615285D01*
X946594Y615285D01*
X946594Y618600D02*
X951036Y618600D01*
X951036Y621915D02*
X946594Y621915D01*
X946594Y625230D02*
X951036Y625230D01*
X951036Y628545D02*
X946594Y628545D01*
X946594Y631860D02*
X951036Y631860D01*
X933894Y634327D02*
X933894Y615285D01*
X933894Y634327D02*
X938336Y634327D01*
X938336Y615285D01*
X933894Y615285D01*
X933894Y618600D02*
X938336Y618600D01*
X938336Y621915D02*
X933894Y621915D01*
X933894Y625230D02*
X938336Y625230D01*
X938336Y628545D02*
X933894Y628545D01*
X933894Y631860D02*
X938336Y631860D01*
X921194Y634327D02*
X921194Y615285D01*
X921194Y634327D02*
X925636Y634327D01*
X925636Y615285D01*
X921194Y615285D01*
X921194Y618600D02*
X925636Y618600D01*
X925636Y621915D02*
X921194Y621915D01*
X921194Y625230D02*
X925636Y625230D01*
X925636Y628545D02*
X921194Y628545D01*
X921194Y631860D02*
X925636Y631860D01*
X908494Y634327D02*
X908494Y615285D01*
X908494Y634327D02*
X912936Y634327D01*
X912936Y615285D01*
X908494Y615285D01*
X908494Y618600D02*
X912936Y618600D01*
X912936Y621915D02*
X908494Y621915D01*
X908494Y625230D02*
X912936Y625230D01*
X912936Y628545D02*
X908494Y628545D01*
X908494Y631860D02*
X912936Y631860D01*
X895794Y634327D02*
X895794Y615285D01*
X895794Y634327D02*
X900236Y634327D01*
X900236Y615285D01*
X895794Y615285D01*
X895794Y618600D02*
X900236Y618600D01*
X900236Y621915D02*
X895794Y621915D01*
X895794Y625230D02*
X900236Y625230D01*
X900236Y628545D02*
X895794Y628545D01*
X895794Y631860D02*
X900236Y631860D01*
X883094Y634327D02*
X883094Y615285D01*
X883094Y634327D02*
X887536Y634327D01*
X887536Y615285D01*
X883094Y615285D01*
X883094Y618600D02*
X887536Y618600D01*
X887536Y621915D02*
X883094Y621915D01*
X883094Y625230D02*
X887536Y625230D01*
X887536Y628545D02*
X883094Y628545D01*
X883094Y631860D02*
X887536Y631860D01*
X870394Y634327D02*
X870394Y615285D01*
X870394Y634327D02*
X874836Y634327D01*
X874836Y615285D01*
X870394Y615285D01*
X870394Y618600D02*
X874836Y618600D01*
X874836Y621915D02*
X870394Y621915D01*
X870394Y625230D02*
X874836Y625230D01*
X874836Y628545D02*
X870394Y628545D01*
X870394Y631860D02*
X874836Y631860D01*
X857694Y634327D02*
X857694Y615285D01*
X857694Y634327D02*
X862136Y634327D01*
X862136Y615285D01*
X857694Y615285D01*
X857694Y618600D02*
X862136Y618600D01*
X862136Y621915D02*
X857694Y621915D01*
X857694Y625230D02*
X862136Y625230D01*
X862136Y628545D02*
X857694Y628545D01*
X857694Y631860D02*
X862136Y631860D01*
X857694Y541227D02*
X857694Y522185D01*
X857694Y541227D02*
X862136Y541227D01*
X862136Y522185D01*
X857694Y522185D01*
X857694Y525500D02*
X862136Y525500D01*
X862136Y528815D02*
X857694Y528815D01*
X857694Y532130D02*
X862136Y532130D01*
X862136Y535445D02*
X857694Y535445D01*
X857694Y538760D02*
X862136Y538760D01*
X870394Y541227D02*
X870394Y522185D01*
X870394Y541227D02*
X874836Y541227D01*
X874836Y522185D01*
X870394Y522185D01*
X870394Y525500D02*
X874836Y525500D01*
X874836Y528815D02*
X870394Y528815D01*
X870394Y532130D02*
X874836Y532130D01*
X874836Y535445D02*
X870394Y535445D01*
X870394Y538760D02*
X874836Y538760D01*
X883094Y541227D02*
X883094Y522185D01*
X883094Y541227D02*
X887536Y541227D01*
X887536Y522185D01*
X883094Y522185D01*
X883094Y525500D02*
X887536Y525500D01*
X887536Y528815D02*
X883094Y528815D01*
X883094Y532130D02*
X887536Y532130D01*
X887536Y535445D02*
X883094Y535445D01*
X883094Y538760D02*
X887536Y538760D01*
X895794Y541227D02*
X895794Y522185D01*
X895794Y541227D02*
X900236Y541227D01*
X900236Y522185D01*
X895794Y522185D01*
X895794Y525500D02*
X900236Y525500D01*
X900236Y528815D02*
X895794Y528815D01*
X895794Y532130D02*
X900236Y532130D01*
X900236Y535445D02*
X895794Y535445D01*
X895794Y538760D02*
X900236Y538760D01*
X908494Y541227D02*
X908494Y522185D01*
X908494Y541227D02*
X912936Y541227D01*
X912936Y522185D01*
X908494Y522185D01*
X908494Y525500D02*
X912936Y525500D01*
X912936Y528815D02*
X908494Y528815D01*
X908494Y532130D02*
X912936Y532130D01*
X912936Y535445D02*
X908494Y535445D01*
X908494Y538760D02*
X912936Y538760D01*
X921194Y541227D02*
X921194Y522185D01*
X921194Y541227D02*
X925636Y541227D01*
X925636Y522185D01*
X921194Y522185D01*
X921194Y525500D02*
X925636Y525500D01*
X925636Y528815D02*
X921194Y528815D01*
X921194Y532130D02*
X925636Y532130D01*
X925636Y535445D02*
X921194Y535445D01*
X921194Y538760D02*
X925636Y538760D01*
X933894Y541227D02*
X933894Y522185D01*
X933894Y541227D02*
X938336Y541227D01*
X938336Y522185D01*
X933894Y522185D01*
X933894Y525500D02*
X938336Y525500D01*
X938336Y528815D02*
X933894Y528815D01*
X933894Y532130D02*
X938336Y532130D01*
X938336Y535445D02*
X933894Y535445D01*
X933894Y538760D02*
X938336Y538760D01*
X946594Y541227D02*
X946594Y522185D01*
X946594Y541227D02*
X951036Y541227D01*
X951036Y522185D01*
X946594Y522185D01*
X946594Y525500D02*
X951036Y525500D01*
X951036Y528815D02*
X946594Y528815D01*
X946594Y532130D02*
X951036Y532130D01*
X951036Y535445D02*
X946594Y535445D01*
X946594Y538760D02*
X951036Y538760D01*
D49*
X98572Y523049D03*
X80572Y523049D03*
X98572Y505049D03*
X80572Y505049D03*
X98572Y487049D03*
X80572Y487049D03*
X98572Y469049D03*
X80572Y469049D03*
D50*
X1319530Y433070D03*
X1346200Y433070D03*
X501650Y433070D03*
X488950Y433070D03*
X420370Y541020D03*
X138430Y570230D03*
X170180Y614680D03*
X335280Y1073150D03*
X321310Y1075690D03*
X295910Y614680D03*
X619760Y313690D03*
X157480Y621030D03*
X445770Y919480D03*
X614680Y429260D03*
X659130Y1098550D03*
X1215390Y431800D03*
X1371600Y546100D03*
X1421130Y500380D03*
X1553210Y652780D03*
X1573530Y495300D03*
X1643380Y182880D03*
X309880Y656590D03*
X549910Y656590D03*
X1532890Y626110D03*
X1568450Y506730D03*
X1624330Y179070D03*
X1624330Y114300D03*
X355600Y701040D03*
X929640Y519430D03*
X121920Y911860D03*
X165100Y1013460D03*
X840740Y177800D03*
X805180Y142240D03*
X397510Y631190D03*
X383540Y544830D03*
X452120Y384810D03*
X452120Y373380D03*
X133350Y581660D03*
X485140Y935990D03*
X298450Y1023620D03*
X378460Y629920D03*
X378460Y557530D03*
X102870Y969010D03*
X100330Y948690D03*
X245110Y683260D03*
X924560Y137160D03*
X783590Y137160D03*
X222250Y566420D03*
X287020Y609600D03*
X160020Y598170D03*
X127000Y923290D03*
X185420Y981710D03*
X933450Y157480D03*
X359410Y556260D03*
X454660Y615950D03*
X406400Y567690D03*
X209550Y543560D03*
X298450Y765810D03*
X915670Y1036320D03*
X877570Y328930D03*
X764540Y441960D03*
X764540Y355600D03*
X835660Y284480D03*
X930910Y189230D03*
X948690Y157480D03*
X1036320Y157480D03*
X243840Y496570D03*
X957580Y140970D03*
X1038860Y140970D03*
X215900Y566420D03*
X361950Y701040D03*
X835660Y701040D03*
X933450Y167640D03*
X566420Y401320D03*
X516890Y440690D03*
X331470Y485140D03*
X464820Y453390D03*
X1003300Y441960D03*
X539750Y434340D03*
X400050Y567690D03*
X632460Y1079500D03*
X335280Y1089660D03*
X201930Y741680D03*
X298450Y706120D03*
X1376680Y412750D03*
X953770Y162560D03*
X227330Y694690D03*
X1324610Y534670D03*
X1324610Y524510D03*
X1380490Y534670D03*
X892810Y274320D03*
X942340Y208280D03*
X984250Y135890D03*
X862330Y205740D03*
M02*
